<svg width="302" height="68" viewBox="0 0 302 68" fill="none" xmlns="http://www.w3.org/2000/svg">
<g clip-path="url(#clip0_9_10)">
<path d="M66.2281 0C66.9596 0 67.5526 0.447715 67.5526 1C67.5526 1.55228 66.9596 2 66.2281 2H3.97368V51C3.97368 51.8284 3.08415 52.5 1.98684 52.5C0.88954 52.5 -1.02828e-09 51.8284 0 51V0H66.2281Z" fill="#FFFDFD"/>
<path d="M72.8509 3.5C73.9481 3.5 74.8377 4.17157 74.8377 5C74.8377 5.82843 73.9481 6.5 72.8509 6.5H9.27193V54C9.27193 54.5523 8.67889 55 7.94736 55C7.21584 55 6.6228 54.5523 6.6228 54V3.5H72.8509Z" fill="#FFFDFD"/>
<path d="M235.11 68C234.378 68 233.785 67.5523 233.785 67C233.785 66.4477 234.378 66 235.11 66H297.364V17C297.364 16.1716 298.254 15.5 299.351 15.5C300.448 15.5 301.338 16.1716 301.338 17V68H235.11Z" fill="white"/>
<path d="M228.487 64.5C227.39 64.5 226.5 63.8284 226.5 63C226.5 62.1716 227.39 61.5 228.487 61.5H292.066V14C292.066 13.4477 292.659 13 293.39 13C294.122 13 294.715 13.4477 294.715 14V64.5H228.487Z" fill="white"/>
</g>
<defs>
<clipPath id="clip0_9_10">
<rect width="302" height="68" fill="white"/>
</clipPath>
</defs>
</svg>
