<svg width="168" height="123" viewBox="0 0 168 123" fill="none" xmlns="http://www.w3.org/2000/svg">
<path d="M148.11 0C149.746 0 151.072 1.00125 151.072 2.23636C151.072 3.47146 149.746 4.47273 148.11 4.47273H8.8866V114.055C8.8866 115.907 6.89728 117.409 4.4433 117.409C1.98933 117.409 -2.2996e-09 115.907 0 114.055V0H148.11Z" fill="white"/>
<path d="M162.921 7.82739C165.375 7.82739 167.364 9.32927 167.364 11.1819C167.364 13.0346 165.375 14.5365 162.921 14.5365H20.7352V120.764C20.7352 121.999 19.409 123 17.773 123C16.137 123 14.8108 121.999 14.8108 120.764V7.82739H162.921Z" fill="white"/>
</svg>
